<svg height="512" viewBox="0 0 64 64" width="512" xmlns="http://www.w3.org/2000/svg">
    <g id="Book-Study-Student-Share-Education">
        <path
            d="m48 25h-3v-3a1 1 0 0 0 -1-1h-8a4.994 4.994 0 0 0 -4 2.03 4.994 4.994 0 0 0 -4-2.03h-8a1 1 0 0 0 -1 1v3h-3a1 1 0 0 0 -1 1v16a1 1 0 0 0 1 1h32a1 1 0 0 0 1-1v-16a1 1 0 0 0 -1-1zm-29 16h-2v-14h2zm2 0v-2h7a3.014 3.014 0 0 1 2.83 2zm10-2.97a4.924 4.924 0 0 0 -3-1.03h-7v-14h7a3.009 3.009 0 0 1 3 3zm12 2.97h-9.83a3.014 3.014 0 0 1 2.83-2h7zm0-4h-7a4.924 4.924 0 0 0 -3 1.03v-12.03a3.009 3.009 0 0 1 3-3h7zm4 4h-2v-14h2z" />
        <path d="m23 25h6v2h-6z" />
        <path d="m23 29h6v2h-6z" />
        <path d="m23 33h6v2h-6z" />
        <path d="m35 25h6v2h-6z" />
        <path d="m35 29h6v2h-6z" />
        <path d="m35 33h6v2h-6z" />
        <path
            d="m60.66 13.57-2.77-1.84a3.945 3.945 0 0 0 1.11-2.73v-3a4 4 0 0 0 -8 0v3a3.951 3.951 0 0 0 1.1 2.74l-2.76 1.83a2.993 2.993 0 0 0 -1.34 2.5v2.93a1 1 0 0 0 1 1h12a1 1 0 0 0 1-1v-2.93a2.993 2.993 0 0 0 -1.34-2.5zm-7.66-7.57a2 2 0 0 1 3.94-.48l-.23-.23a1.008 1.008 0 0 0 -1.42 0l-1.41 1.41a1 1 0 0 1 -.71.3h-.17zm.17 3a3 3 0 0 0 2.13-.88l.7-.71 1 1v.59a1.981 1.981 0 0 1 -.67 1.49 2.034 2.034 0 0 1 -2.66 0l-.08-.08a1.983 1.983 0 0 1 -.59-1.41zm6.83 9h-10v-1.93a1 1 0 0 1 .45-.83l3.57-2.38a3.5 3.5 0 0 0 1.96 0l3.57 2.38a1 1 0 0 1 .45.83z" />
        <path
            d="m14.66 13.57-2.77-1.84a3.945 3.945 0 0 0 1.11-2.73v-3a4 4 0 0 0 -8 0v3a3.951 3.951 0 0 0 1.1 2.74l-2.76 1.83a2.993 2.993 0 0 0 -1.34 2.5v2.93a1 1 0 0 0 1 1h12a1 1 0 0 0 1-1v-2.93a2.993 2.993 0 0 0 -1.34-2.5zm-7.66-7.57a2 2 0 0 1 3.94-.48l-.23-.23a1.008 1.008 0 0 0 -1.42 0l-1.41 1.41a1 1 0 0 1 -.71.3h-.17zm.17 3a3 3 0 0 0 2.13-.88l.7-.71 1 1v.59a1.981 1.981 0 0 1 -.67 1.49 2.034 2.034 0 0 1 -2.66 0l-.08-.08a1.983 1.983 0 0 1 -.59-1.41zm6.83 9h-10v-1.93a1 1 0 0 1 .45-.83l3.57-2.38a4 4 0 0 0 .98.14 4 4 0 0 0 .98-.14l3.57 2.38a1 1 0 0 1 .45.83z" />
        <path
            d="m60.66 55.57-2.77-1.84a3.945 3.945 0 0 0 1.11-2.73v-3a4 4 0 0 0 -8 0v3a3.951 3.951 0 0 0 1.1 2.74l-2.76 1.83a2.993 2.993 0 0 0 -1.34 2.5v2.93a1 1 0 0 0 1 1h12a1 1 0 0 0 1-1v-2.93a2.993 2.993 0 0 0 -1.34-2.5zm-7.66-7.57a2 2 0 0 1 3.94-.48l-.23-.23a1.008 1.008 0 0 0 -1.42 0l-1.41 1.41a1 1 0 0 1 -.71.3h-.17zm.17 3a3 3 0 0 0 2.13-.88l.7-.71 1 1v.59a1.981 1.981 0 0 1 -.67 1.49 2.034 2.034 0 0 1 -2.66 0l-.08-.08a1.983 1.983 0 0 1 -.59-1.41zm6.83 9h-10v-1.93a1 1 0 0 1 .45-.83l3.57-2.38a3.5 3.5 0 0 0 1.96 0l3.57 2.38a1 1 0 0 1 .45.83z" />
        <path
            d="m14.66 55.57-2.77-1.84a3.945 3.945 0 0 0 1.11-2.73v-3a4 4 0 0 0 -8 0v3a3.951 3.951 0 0 0 1.1 2.74l-2.76 1.83a2.993 2.993 0 0 0 -1.34 2.5v2.93a1 1 0 0 0 1 1h12a1 1 0 0 0 1-1v-2.93a2.993 2.993 0 0 0 -1.34-2.5zm-7.66-7.57a2 2 0 0 1 3.94-.48l-.23-.23a1.008 1.008 0 0 0 -1.42 0l-1.41 1.41a1 1 0 0 1 -.71.3h-.17zm.17 3a3 3 0 0 0 2.13-.88l.7-.71 1 1v.59a1.981 1.981 0 0 1 -.67 1.49 2.034 2.034 0 0 1 -2.66 0l-.08-.08a1.983 1.983 0 0 1 -.59-1.41zm6.83 9h-10v-1.93a1 1 0 0 1 .45-.83l3.57-2.38a4 4 0 0 0 .98.14 4 4 0 0 0 .98-.14l3.57 2.38a1 1 0 0 1 .45.83z" />
        <path d="m39 16.414 6.707-6.707-1.414-1.414-7 7a1 1 0 0 0 -.293.707v3h2z" />
        <path d="m25 19h2v-3a1 1 0 0 0 -.293-.707l-7-7-1.414 1.414 6.707 6.707z" />
        <path d="m39 45h-2v3a1 1 0 0 0 .293.707l7 7 1.414-1.414-6.707-6.707z" />
        <path d="m25 47.586-6.707 6.707 1.414 1.414 7-7a1 1 0 0 0 .293-.707v-3h-2z" />
        <path d="m51 31h2v2h-2z" />
        <path d="m51 27h2v2h-2z" />
        <path d="m51 35h2v2h-2z" />
        <path d="m11 31h2v2h-2z" />
        <path d="m11 27h2v2h-2z" />
        <path d="m11 35h2v2h-2z" />
    </g>
</svg>